<?xml version="1.0" standalone="no"?>
<!DOCTYPE svg PUBLIC "-//W3C//DTD SVG 20010904//EN"
 "http://www.w3.org/TR/2001/REC-SVG-20010904/DTD/svg10.dtd">
<svg version="1.0" xmlns="http://www.w3.org/2000/svg"
 width="700.000000pt" height="700.000000pt" viewBox="0 0 700.000000 700.000000"
 preserveAspectRatio="xMidYMid meet">
<metadata>
Created by potrace 1.11, written by Peter Selinger 2001-2013
</metadata>
<g transform="translate(0.000000,700.000000) scale(0.100000,-0.100000)"
fill="#000000" stroke="none">
<path d="M3792 5251 l3 -1166 1165 0 1165 0 -1 45 c-2 153 -29 361 -66 505
-25 102 -84 286 -103 322 -8 15 -15 32 -15 36 0 15 -119 246 -161 314 -86 137
-217 301 -339 423 -114 115 -339 297 -414 335 -17 9 -44 24 -61 35 -104 65
-354 176 -475 211 -25 7 -49 14 -55 16 -115 37 -390 81 -543 87 l-102 4 2
-1167z"/>
<path d="M588 4375 c0 0 -2 -132 -3 -293 -1 -202 2 -292 9 -291 54 6 646 -3
646 -10 0 -5 39 -92 86 -193 47 -100 97 -208 111 -238 131 -280 263 -555 339
-705 l71 -141 -71 -44 c-86 -55 -228 -193 -285 -278 -188 -280 -229 -634 -109
-947 132 -342 463 -600 823 -642 362 -42 696 94 927 377 88 109 171 286 199
428 l13 62 301 0 301 0 17 -74 c76 -351 342 -644 687 -755 150 -49 349 -59
510 -26 368 75 668 348 775 705 33 111 40 168 39 320 -2 145 -29 267 -88 394
-54 118 -112 201 -223 318 l-25 27 59 83 c89 125 109 159 188 318 145 291 227
618 239 953 l2 67 -1455 0 c-801 0 -1757 1 -2125 3 l-668 2 -95 200 c-51 110
-113 240 -137 290 l-43 90 -507 0 c-278 0 -507 0 -508 0z m1927 -2375 c282
-135 342 -502 116 -713 -51 -48 -149 -101 -206 -112 -107 -20 -238 5 -328 62
-95 60 -178 184 -192 289 -4 27 -8 59 -10 71 -6 36 22 147 50 205 48 98 142
180 251 217 46 16 80 20 154 18 84 -3 103 -7 165 -37z m2581 18 c231 -78 353
-327 274 -558 -12 -36 -25 -67 -29 -70 -4 -3 -17 -21 -29 -40 -62 -103 -204
-176 -347 -179 -156 -3 -291 69 -375 199 -157 244 -24 587 254 656 73 18 185
15 252 -8z"/>
</g>
</svg>
